<svg width="574" height="578" viewBox="0 0 574 578" fill="none" xmlns="http://www.w3.org/2000/svg">
<path fill-rule="evenodd" clip-rule="evenodd" d="M156.052 111.607H169.064L220.673 189.982L169.064 268.356H156.052L207.66 189.982L156.052 111.607Z" fill="#D8D9D8"/>
<path fill-rule="evenodd" clip-rule="evenodd" d="M173.386 274.432L233.164 183.612H326.744L386.506 274.432L326.744 365.236H233.164L173.386 274.432Z" fill="#404040"/>
<path opacity="0.13" fill-rule="evenodd" clip-rule="evenodd" d="M173.386 274.432L233.196 183.612H326.711L386.522 274.432C322.081 260.145 273.065 256.838 173.386 274.432Z" fill="white"/>
<path d="M235.95 239.163L231.841 221.96H235.396L237.988 233.771L241.135 221.96H245.277L248.294 233.982L250.935 221.96H254.441L250.25 239.163H246.565L243.141 226.293L239.717 239.163H235.95Z" fill="white"/>
<path d="M259.479 221.96V228.281C260.539 227.043 261.811 226.408 263.295 226.408C264.061 226.408 264.746 226.554 265.35 226.831C265.969 227.108 266.426 227.466 266.736 227.906C267.045 228.346 267.257 228.835 267.371 229.356C267.486 229.894 267.535 230.708 267.535 231.832V239.147H264.241V232.565C264.241 231.262 264.176 230.431 264.045 230.073C263.915 229.715 263.703 229.438 263.377 229.226C263.067 229.014 262.659 228.916 262.186 228.916C261.632 228.916 261.143 229.047 260.719 229.307C260.295 229.568 259.969 229.975 259.773 230.513C259.577 231.05 259.479 231.849 259.479 232.891V239.131H256.186V221.928H259.479V221.96Z" fill="white"/>
<path d="M270.127 232.761C270.127 231.67 270.404 230.611 270.942 229.584C271.48 228.558 272.247 227.776 273.241 227.238C274.236 226.701 275.345 226.424 276.568 226.424C278.459 226.424 280.008 227.043 281.215 228.265C282.422 229.487 283.025 231.034 283.025 232.908C283.025 234.781 282.422 236.361 281.199 237.599C279.976 238.837 278.443 239.456 276.6 239.456C275.459 239.456 274.367 239.196 273.323 238.674C272.279 238.153 271.497 237.404 270.959 236.41C270.42 235.416 270.143 234.195 270.143 232.761H270.127ZM273.519 232.94C273.519 234.178 273.812 235.123 274.399 235.775C274.986 236.426 275.704 236.752 276.568 236.752C277.432 236.752 278.15 236.426 278.737 235.775C279.324 235.123 279.617 234.162 279.617 232.908C279.617 231.653 279.324 230.741 278.737 230.089C278.15 229.438 277.432 229.096 276.568 229.096C275.704 229.096 274.986 229.421 274.399 230.089C273.812 230.741 273.519 231.686 273.519 232.924V232.94Z" fill="white"/>
<path d="M294.602 239.163L290.656 226.701H293.869L296.2 234.879L298.353 226.701H301.532L303.62 234.879L306 226.701H309.261L305.25 239.163H302.07L299.918 231.148L297.798 239.163H294.586H294.602Z" fill="white"/>
<path d="M318.213 235.205L321.507 235.758C321.083 236.964 320.414 237.876 319.501 238.512C318.588 239.147 317.447 239.456 316.077 239.456C313.908 239.456 312.294 238.756 311.267 237.339C310.451 236.198 310.027 234.765 310.027 233.038C310.027 230.969 310.565 229.356 311.642 228.183C312.718 227.01 314.088 226.424 315.734 226.424C317.593 226.424 319.061 227.043 320.121 228.265C321.181 229.486 321.702 231.36 321.654 233.901H313.386C313.403 234.879 313.68 235.644 314.185 236.182C314.691 236.72 315.327 236.996 316.093 236.996C316.615 236.996 317.039 236.85 317.398 236.573C317.756 236.296 318.017 235.84 318.197 235.205H318.213ZM318.409 231.865C318.392 230.904 318.131 230.187 317.675 229.682C317.202 229.193 316.631 228.933 315.963 228.933C315.245 228.933 314.642 229.193 314.185 229.715C313.713 230.236 313.484 230.953 313.484 231.849H318.425L318.409 231.865Z" fill="white"/>
<path d="M259.464 263.29L256.464 262.752C256.807 261.546 257.377 260.65 258.209 260.08C259.04 259.51 260.247 259.217 261.878 259.217C263.345 259.217 264.454 259.396 265.172 259.738C265.889 260.08 266.395 260.52 266.688 261.058C266.982 261.595 267.128 262.573 267.128 264.006L267.096 267.851C267.096 268.942 267.145 269.757 267.259 270.278C267.373 270.8 267.569 271.353 267.846 271.956H264.585C264.503 271.744 264.389 271.419 264.275 270.979C264.226 270.783 264.177 270.653 264.161 270.588C263.59 271.142 262.987 271.549 262.351 271.826C261.715 272.103 261.03 272.233 260.296 272.233C259.008 272.233 257.997 271.891 257.263 271.191C256.529 270.49 256.154 269.61 256.154 268.551C256.154 267.851 256.317 267.216 256.66 266.662C257.002 266.108 257.475 265.684 258.078 265.391C258.682 265.098 259.562 264.837 260.704 264.625C262.253 264.332 263.313 264.072 263.916 263.811V263.485C263.916 262.85 263.753 262.394 263.443 262.133C263.133 261.856 262.546 261.726 261.666 261.726C261.079 261.726 260.622 261.84 260.296 262.068C259.97 262.296 259.693 262.703 259.497 263.29H259.464ZM263.883 265.961C263.459 266.108 262.791 266.271 261.878 266.466C260.965 266.662 260.361 266.857 260.084 267.036C259.66 267.346 259.432 267.721 259.432 268.193C259.432 268.665 259.611 269.056 259.954 269.399C260.296 269.741 260.736 269.904 261.274 269.904C261.861 269.904 262.432 269.708 262.97 269.317C263.378 269.024 263.639 268.649 263.753 268.226C263.834 267.949 263.883 267.411 263.883 266.613V265.961Z" fill="white"/>
<path d="M273.553 271.956H270.259V259.494H273.324V261.27C273.846 260.439 274.319 259.885 274.743 259.608C275.167 259.347 275.64 259.201 276.178 259.201C276.928 259.201 277.662 259.412 278.347 259.82L277.319 262.703C276.765 262.345 276.243 262.165 275.77 262.165C275.297 262.165 274.922 262.296 274.596 262.54C274.27 262.801 274.025 263.257 273.846 263.925C273.667 264.593 273.569 265.978 273.569 268.112V271.956H273.553Z" fill="white"/>
<path d="M286.973 267.998L290.267 268.551C289.843 269.757 289.174 270.669 288.261 271.305C287.348 271.94 286.206 272.249 284.837 272.249C282.668 272.249 281.054 271.549 280.026 270.132C279.211 268.991 278.787 267.558 278.787 265.831C278.787 263.762 279.325 262.149 280.401 260.976C281.478 259.803 282.847 259.217 284.494 259.217C286.353 259.217 287.821 259.836 288.881 261.058C289.94 262.28 290.462 264.153 290.413 266.694H282.146C282.162 267.672 282.44 268.437 282.945 268.975C283.451 269.513 284.087 269.79 284.853 269.79C285.375 269.79 285.799 269.643 286.157 269.366C286.516 269.089 286.777 268.633 286.956 267.998H286.973ZM287.168 264.658C287.152 263.697 286.891 262.98 286.435 262.475C285.962 261.986 285.391 261.726 284.723 261.726C284.005 261.726 283.402 261.986 282.929 262.508C282.456 263.029 282.228 263.746 282.244 264.642H287.185L287.168 264.658Z" fill="white"/>
<path d="M298.045 272.249L302.317 254.46H304.796L300.491 272.249H298.061H298.045Z" fill="white"/>
<path d="M232.152 304.749L228.043 287.546H231.598L234.19 299.357L237.337 287.546H241.479L244.496 299.569L247.137 287.546H250.643L246.453 304.749H242.767L239.343 291.879L235.919 304.749H232.152Z" fill="white"/>
<path d="M255.682 287.546V293.867C256.741 292.629 258.013 291.994 259.497 291.994C260.264 291.994 260.948 292.14 261.552 292.417C262.171 292.694 262.628 293.053 262.938 293.493C263.248 293.932 263.46 294.421 263.574 294.942C263.688 295.48 263.737 296.295 263.737 297.419V304.733H260.443V298.152C260.443 296.848 260.378 296.018 260.247 295.659C260.117 295.301 259.905 295.024 259.579 294.812C259.269 294.6 258.861 294.503 258.388 294.503C257.834 294.503 257.345 294.633 256.921 294.894C256.497 295.154 256.171 295.561 255.975 296.099C255.779 296.637 255.682 297.435 255.682 298.477V304.717H252.388V287.514H255.682V287.546Z" fill="white"/>
<path d="M269.557 296.083L266.557 295.545C266.899 294.34 267.47 293.444 268.302 292.874C269.133 292.303 270.34 292.01 271.971 292.01C273.438 292.01 274.547 292.189 275.264 292.531C275.982 292.874 276.487 293.313 276.781 293.851C277.074 294.389 277.221 295.366 277.221 296.8L277.188 300.644C277.188 301.736 277.237 302.55 277.351 303.071C277.466 303.593 277.661 304.147 277.939 304.749H274.677C274.596 304.538 274.482 304.212 274.367 303.772C274.319 303.576 274.27 303.446 274.253 303.381C273.683 303.935 273.079 304.342 272.443 304.619C271.807 304.896 271.123 305.026 270.389 305.026C269.101 305.026 268.09 304.684 267.356 303.984C266.622 303.283 266.247 302.404 266.247 301.345C266.247 300.644 266.41 300.009 266.753 299.455C267.095 298.901 267.568 298.477 268.171 298.184C268.775 297.891 269.655 297.63 270.796 297.419C272.346 297.125 273.405 296.865 274.009 296.604V296.278C274.009 295.643 273.846 295.187 273.536 294.926C273.226 294.649 272.639 294.519 271.759 294.519C271.172 294.519 270.715 294.633 270.389 294.861C270.063 295.089 269.786 295.496 269.59 296.083H269.557ZM273.976 298.754C273.552 298.901 272.884 299.064 271.971 299.259C271.057 299.455 270.454 299.65 270.177 299.83C269.753 300.139 269.525 300.514 269.525 300.986C269.525 301.459 269.704 301.85 270.046 302.192C270.389 302.534 270.829 302.697 271.367 302.697C271.954 302.697 272.525 302.501 273.063 302.11C273.471 301.817 273.732 301.442 273.846 301.019C273.927 300.742 273.976 300.204 273.976 299.406V298.754Z" fill="white"/>
<path d="M286.192 292.287V294.91H283.942V299.927C283.942 300.937 283.958 301.54 284.007 301.703C284.056 301.866 284.154 302.013 284.301 302.127C284.447 302.241 284.643 302.289 284.855 302.289C285.165 302.289 285.605 302.192 286.176 301.98L286.453 304.538C285.687 304.863 284.822 305.026 283.844 305.026C283.241 305.026 282.719 304.929 282.23 304.733C281.741 304.538 281.398 304.277 281.186 303.951C280.958 303.642 280.811 303.202 280.73 302.664C280.664 302.273 280.632 301.508 280.632 300.335V294.894H279.115V292.271H280.632V289.795L283.942 287.872V292.271H286.192V292.287Z" fill="white"/>
<path d="M297.49 304.749L293.544 292.287H296.756L299.088 300.465L301.24 292.287H304.42L306.507 300.465L308.888 292.287H312.149L308.138 304.749H304.958L302.806 296.734L300.686 304.749H297.474H297.49Z" fill="white"/>
<path d="M321.118 300.774L324.412 301.328C323.988 302.534 323.32 303.446 322.406 304.081C321.493 304.717 320.352 305.026 318.982 305.026C316.813 305.026 315.199 304.326 314.172 302.909C313.357 301.768 312.933 300.335 312.933 298.608C312.933 296.539 313.471 294.926 314.547 293.753C315.623 292.58 316.993 291.994 318.64 291.994C320.499 291.994 321.966 292.613 323.026 293.835C324.086 295.056 324.608 296.93 324.559 299.471H316.292C316.308 300.449 316.585 301.214 317.091 301.752C317.596 302.289 318.232 302.566 318.998 302.566C319.52 302.566 319.944 302.42 320.303 302.143C320.662 301.866 320.923 301.41 321.102 300.774H321.118ZM321.314 297.435C321.298 296.474 321.037 295.757 320.58 295.252C320.107 294.763 319.537 294.503 318.868 294.503C318.151 294.503 317.547 294.763 317.091 295.285C316.618 295.806 316.389 296.523 316.389 297.419H321.33L321.314 297.435Z" fill="white"/>
<path d="M253.595 337.542L248.572 325.08H252.045L254.394 331.45L255.078 333.568C255.258 333.03 255.372 332.672 255.421 332.492C255.535 332.134 255.649 331.792 255.78 331.433L258.16 325.064H261.552L256.595 337.526H253.627L253.595 337.542Z" fill="white"/>
<path d="M266.02 328.876L263.02 328.338C263.362 327.133 263.933 326.237 264.764 325.667C265.596 325.096 266.803 324.803 268.433 324.803C269.901 324.803 271.01 324.982 271.727 325.324C272.445 325.667 272.95 326.106 273.244 326.644C273.537 327.182 273.684 328.159 273.684 329.593L273.651 333.437C273.651 334.529 273.7 335.343 273.814 335.865C273.929 336.386 274.124 336.94 274.401 337.542H271.14C271.059 337.331 270.944 337.005 270.83 336.565C270.781 336.37 270.733 336.239 270.716 336.174C270.146 336.728 269.542 337.135 268.906 337.412C268.27 337.689 267.585 337.819 266.852 337.819C265.564 337.819 264.553 337.477 263.819 336.777C263.085 336.076 262.71 335.197 262.71 334.138C262.71 333.437 262.873 332.802 263.215 332.248C263.558 331.694 264.031 331.271 264.634 330.977C265.237 330.684 266.118 330.423 267.259 330.212C268.808 329.918 269.868 329.658 270.472 329.397V329.071C270.472 328.436 270.309 327.98 269.999 327.719C269.689 327.442 269.102 327.312 268.221 327.312C267.634 327.312 267.178 327.426 266.852 327.654C266.526 327.882 266.248 328.289 266.053 328.876H266.02ZM270.439 331.547C270.015 331.694 269.346 331.857 268.433 332.052C267.52 332.248 266.917 332.443 266.64 332.623C266.216 332.932 265.987 333.307 265.987 333.779C265.987 334.252 266.167 334.643 266.509 334.985C266.852 335.327 267.292 335.49 267.83 335.49C268.417 335.49 268.988 335.294 269.526 334.903C269.934 334.61 270.194 334.235 270.309 333.812C270.39 333.535 270.439 332.997 270.439 332.199V331.547Z" fill="white"/>
<path d="M276.929 337.542V320.34H280.223V337.542H276.929Z" fill="white"/>
<path d="M291.832 337.542V335.669C291.376 336.337 290.789 336.858 290.039 337.249C289.305 337.624 288.522 337.819 287.691 337.819C286.859 337.819 286.109 337.64 285.44 337.265C284.772 336.891 284.299 336.386 283.989 335.718C283.696 335.05 283.549 334.138 283.549 332.965V325.08H286.859V330.814C286.859 332.574 286.924 333.649 287.038 334.04C287.152 334.431 287.381 334.74 287.707 334.985C288.033 335.213 288.441 335.327 288.93 335.327C289.501 335.327 290.006 335.18 290.446 334.871C290.887 334.561 291.196 334.17 291.359 333.714C291.522 333.258 291.604 332.134 291.604 330.358V325.096H294.914V337.559H291.849L291.832 337.542Z" fill="white"/>
<path d="M305.546 333.568L308.84 334.121C308.416 335.327 307.747 336.239 306.834 336.875C305.921 337.51 304.78 337.819 303.41 337.819C301.241 337.819 299.627 337.119 298.6 335.702C297.784 334.561 297.36 333.128 297.36 331.401C297.36 329.332 297.898 327.719 298.975 326.546C300.051 325.373 301.421 324.787 303.067 324.787C304.926 324.787 306.394 325.406 307.454 326.628C308.514 327.85 309.035 329.723 308.987 332.264H300.719C300.736 333.242 301.013 334.007 301.518 334.545C302.024 335.083 302.66 335.36 303.426 335.36C303.948 335.36 304.372 335.213 304.731 334.936C305.089 334.659 305.35 334.203 305.53 333.568H305.546ZM305.742 330.228C305.725 329.267 305.464 328.55 305.008 328.045C304.535 327.556 303.964 327.296 303.296 327.296C302.578 327.296 301.975 327.556 301.518 328.078C301.045 328.599 300.817 329.316 300.817 330.212H305.758L305.742 330.228Z" fill="white"/>
<path fill-rule="evenodd" clip-rule="evenodd" d="M189.333 95.3003L241.007 16.8119H321.363L373.021 95.3003L321.363 173.805H241.007L189.333 95.3003Z" fill="#06AB84"/>
<path fill-rule="evenodd" clip-rule="evenodd" d="M321.476 16.812H334.471L386.015 95.3003L334.471 173.805H321.476L373.035 95.3003L321.476 16.812Z" fill="#D8D9D8"/>
<path opacity="0.13" fill-rule="evenodd" clip-rule="evenodd" d="M189.333 95.3003L240.876 16.8119H321.477L373.021 95.3003C319.879 81.4207 270.195 74.4809 189.333 95.3003Z" fill="white"/>
<path d="M232.837 102.142L231.761 99.1123H224.847L223.836 102.142H220.249L226.152 85.3142H230.261L236.196 102.142H232.837ZM225.924 96.0171H230.669L228.239 89.1425L225.924 96.0171Z" fill="white"/>
<path d="M240.566 93.541C240.566 93.8668 240.778 94.1274 241.202 94.3229C241.626 94.5184 242.147 94.6976 242.751 94.8442C243.354 94.9908 243.974 95.1863 244.577 95.4144C245.18 95.6425 245.702 96.0334 246.126 96.5873C246.55 97.1249 246.762 97.8091 246.762 98.6237C246.762 99.8618 246.305 100.807 245.376 101.475C244.447 102.142 243.305 102.468 241.919 102.468C239.441 102.468 237.761 101.523 236.864 99.6011L239.555 98.0861C239.913 99.1287 240.696 99.65 241.919 99.65C243.028 99.65 243.582 99.3079 243.582 98.6237C243.582 98.2978 243.37 98.0372 242.946 97.8417C242.522 97.6462 242.001 97.467 241.397 97.3041C240.794 97.1412 240.174 96.9457 239.571 96.7014C238.968 96.457 238.446 96.0823 238.022 95.561C237.598 95.0397 237.386 94.3881 237.386 93.6061C237.386 92.4169 237.826 91.4884 238.691 90.8041C239.555 90.1199 240.647 89.7778 241.952 89.7778C242.93 89.7778 243.827 90.0059 244.626 90.4457C245.425 90.8856 246.061 91.5209 246.534 92.3355L243.892 93.7853C243.501 92.9708 242.865 92.5635 241.968 92.5635C241.56 92.5635 241.234 92.645 240.973 92.8242C240.712 93.0034 240.582 93.2477 240.582 93.541H240.566Z" fill="white"/>
<path d="M255.893 89.7941C257.507 89.7941 258.893 90.4132 260.051 91.635C261.192 92.8568 261.763 94.3555 261.763 96.1475C261.763 97.9394 261.192 99.4219 260.051 100.66C258.909 101.882 257.523 102.501 255.893 102.501C254.262 102.501 252.909 101.914 251.996 100.741V106.964H248.897V90.1362H251.996V91.5535C252.909 90.3806 254.213 89.7941 255.893 89.7941ZM252.941 98.5748C253.561 99.2101 254.36 99.5196 255.322 99.5196C256.284 99.5196 257.083 99.2101 257.719 98.5748C258.355 97.9394 258.665 97.1249 258.665 96.1312C258.665 95.1374 258.355 94.3229 257.719 93.6876C257.083 93.0522 256.284 92.7427 255.322 92.7427C254.36 92.7427 253.561 93.0522 252.941 93.6876C252.322 94.3229 251.996 95.1374 251.996 96.1312C251.996 97.1249 252.305 97.9394 252.941 98.5748Z" fill="white"/>
<path d="M265.481 88.6864C264.976 88.6864 264.519 88.4909 264.144 88.1162C263.769 87.7415 263.573 87.3017 263.573 86.7804C263.573 86.2591 263.769 85.8192 264.144 85.4282C264.519 85.0373 264.959 84.8581 265.481 84.8581C266.003 84.8581 266.459 85.0536 266.834 85.4282C267.209 85.8192 267.405 86.2591 267.405 86.7804C267.405 87.3017 267.209 87.7415 266.834 88.1162C266.459 88.4909 266.003 88.6864 265.481 88.6864ZM263.948 102.142V90.12H267.046V102.142H263.948Z" fill="white"/>
<path d="M272.997 92.1888C273.291 91.4231 273.764 90.8367 274.432 90.462C275.101 90.071 275.835 89.8918 276.65 89.8918V93.3454C275.704 93.2314 274.856 93.4269 274.106 93.9156C273.356 94.4206 272.981 95.2351 272.981 96.3918V102.142H269.883V90.1199H272.981V92.1888H272.997Z" fill="white"/>
<path d="M287.592 90.1199H290.69V102.142H287.592V100.725C286.663 101.898 285.358 102.485 283.663 102.485C281.967 102.485 280.679 101.865 279.537 100.644C278.396 99.4219 277.809 97.9231 277.809 96.1312C277.809 94.3392 278.379 92.8568 279.537 91.6187C280.679 90.3969 282.065 89.7778 283.663 89.7778C285.342 89.7778 286.646 90.3643 287.592 91.5372V90.1199ZM281.869 98.5748C282.488 99.2101 283.287 99.5196 284.25 99.5196C285.212 99.5196 286.011 99.2101 286.646 98.5748C287.282 97.9394 287.592 97.1249 287.592 96.1312C287.592 95.1374 287.282 94.3229 286.646 93.6876C286.011 93.0522 285.212 92.7427 284.25 92.7427C283.287 92.7427 282.488 93.0522 281.869 93.6876C281.249 94.3229 280.923 95.1374 280.923 96.1312C280.923 97.1249 281.233 97.9394 281.869 98.5748Z" fill="white"/>
<path d="M300.392 93.1011H297.669V98.1023C297.669 98.5258 297.767 98.8191 297.979 99.0146C298.191 99.21 298.484 99.3078 298.892 99.3404C299.299 99.373 299.789 99.3567 300.392 99.3404V102.159C298.256 102.403 296.756 102.191 295.875 101.556C294.995 100.921 294.571 99.7639 294.571 98.1186V93.1173H292.483V90.1362H294.571V87.7088L297.669 86.764V90.1362H300.392V93.1173V93.1011Z" fill="white"/>
<path d="M304.322 88.6864C303.8 88.6864 303.36 88.4909 302.985 88.1162C302.61 87.7415 302.414 87.3017 302.414 86.7804C302.414 86.2591 302.61 85.8192 302.985 85.4282C303.36 85.0373 303.8 84.8581 304.322 84.8581C304.844 84.8581 305.3 85.0536 305.675 85.4282C306.05 85.8192 306.246 86.2591 306.246 86.7804C306.246 87.3017 306.05 87.7415 305.675 88.1162C305.3 88.4909 304.844 88.6864 304.322 88.6864ZM302.789 102.142V90.12H305.887V102.142H302.789Z" fill="white"/>
<path d="M318.982 100.644C317.742 101.865 316.242 102.485 314.465 102.485C312.687 102.485 311.187 101.865 309.948 100.644C308.725 99.4219 308.105 97.9231 308.105 96.1312C308.105 94.3392 308.725 92.8568 309.948 91.6187C311.171 90.3969 312.671 89.7778 314.465 89.7778C316.258 89.7778 317.759 90.3969 318.982 91.6187C320.221 92.8405 320.84 94.3392 320.84 96.1312C320.84 97.9231 320.221 99.4056 318.982 100.644ZM312.133 98.5096C312.753 99.1287 313.519 99.4545 314.448 99.4545C315.378 99.4545 316.161 99.145 316.78 98.5096C317.4 97.8906 317.726 97.0923 317.726 96.1312C317.726 95.17 317.416 94.3718 316.78 93.7527C316.161 93.1337 315.378 92.8079 314.448 92.8079C313.519 92.8079 312.736 93.1174 312.133 93.7527C311.513 94.3718 311.204 95.17 311.204 96.1312C311.204 97.0923 311.513 97.8906 312.133 98.5096Z" fill="white"/>
<path d="M329.71 89.7941C331.031 89.7941 332.107 90.234 332.971 91.1137C333.836 91.9934 334.26 93.2152 334.26 94.7628V102.142H331.161V95.1537C331.161 94.3555 330.949 93.7365 330.509 93.3129C330.069 92.8893 329.498 92.6776 328.781 92.6776C327.982 92.6776 327.329 92.9219 326.857 93.4269C326.384 93.9156 326.139 94.665 326.139 95.6588V102.142H323.041V90.1199H326.139V91.4721C326.889 90.348 328.096 89.7941 329.727 89.7941H329.71Z" fill="white"/>
<path fill-rule="evenodd" clip-rule="evenodd" d="M348.985 190.112L400.643 111.624H481.015L532.673 190.112L481.015 268.617H400.643L348.985 190.112Z" fill="#06AB84"/>
<path fill-rule="evenodd" clip-rule="evenodd" d="M481.128 111.624H494.124L545.667 190.112L494.124 268.6H481.128L532.671 190.112L481.128 111.624Z" fill="#D8D9D8"/>
<path opacity="0.13" fill-rule="evenodd" clip-rule="evenodd" d="M348.985 190.112L400.529 111.624H481.129L532.673 190.112C479.531 176.232 429.847 169.293 348.985 190.112Z" fill="white"/>
<path d="M421.351 201.206L420.275 198.176H413.361L412.35 201.206H408.763L414.665 184.378H418.775L424.71 201.206H421.351ZM414.437 195.081H419.182L416.753 188.206L414.437 195.081Z" fill="white"/>
<path d="M435.423 189.183H438.456V200.619C438.456 202.477 437.836 203.894 436.613 204.871C435.39 205.849 433.906 206.338 432.178 206.338C430.873 206.338 429.732 206.093 428.753 205.588C427.759 205.099 427.009 204.366 426.487 203.405L429.129 201.89C429.732 203.014 430.792 203.568 432.276 203.568C433.254 203.568 434.02 203.307 434.591 202.802C435.145 202.297 435.439 201.564 435.439 200.619V199.316C434.526 200.538 433.238 201.141 431.591 201.141C429.944 201.141 428.46 200.538 427.319 199.349C426.177 198.16 425.606 196.693 425.606 194.983C425.606 193.272 426.177 191.839 427.335 190.633C428.493 189.428 429.911 188.825 431.591 188.825C433.27 188.825 434.526 189.428 435.439 190.65V189.151L435.423 189.183ZM429.634 197.361C430.27 197.98 431.069 198.29 432.047 198.29C433.026 198.29 433.825 197.98 434.461 197.361C435.097 196.742 435.406 195.96 435.406 194.999C435.406 194.038 435.097 193.272 434.461 192.653C433.825 192.034 433.026 191.725 432.047 191.725C431.069 191.725 430.27 192.034 429.634 192.653C428.998 193.272 428.688 194.054 428.688 194.999C428.688 195.944 428.998 196.742 429.634 197.361Z" fill="white"/>
<path d="M442.809 187.734C442.287 187.734 441.847 187.538 441.472 187.163C441.097 186.789 440.901 186.349 440.901 185.828C440.901 185.306 441.097 184.866 441.472 184.475C441.847 184.084 442.287 183.905 442.809 183.905C443.331 183.905 443.788 184.101 444.163 184.475C444.538 184.866 444.733 185.306 444.733 185.828C444.733 186.349 444.538 186.789 444.163 187.163C443.788 187.538 443.331 187.734 442.809 187.734ZM441.276 201.19V189.167H444.375V201.19H441.276Z" fill="white"/>
<path d="M447.213 201.206V183.661H450.311V201.206H447.213Z" fill="white"/>
<path d="M454.697 187.734C454.175 187.734 453.735 187.538 453.36 187.163C452.985 186.789 452.789 186.349 452.789 185.828C452.789 185.306 452.985 184.866 453.36 184.475C453.735 184.084 454.175 183.905 454.697 183.905C455.219 183.905 455.675 184.101 456.05 184.475C456.425 184.866 456.621 185.306 456.621 185.828C456.621 186.349 456.425 186.789 456.05 187.163C455.675 187.538 455.219 187.734 454.697 187.734ZM453.164 201.19V189.167H456.262V201.19H453.164Z" fill="white"/>
<path d="M465.981 192.165H463.258V197.166C463.258 197.589 463.355 197.883 463.567 198.078C463.779 198.274 464.073 198.371 464.481 198.404C464.888 198.437 465.377 198.42 465.981 198.404V201.222C463.845 201.467 462.344 201.255 461.464 200.619C460.583 199.984 460.159 198.828 460.159 197.182V192.181H458.072V189.2H460.159V186.772L463.258 185.828V189.2H465.981V192.181V192.165Z" fill="white"/>
<path d="M476.204 189.183H479.531L475.145 201.222C474.525 202.933 473.693 204.187 472.65 204.969C471.606 205.751 470.334 206.093 468.785 206.012V203.128C469.617 203.128 470.285 202.965 470.775 202.591C471.264 202.216 471.655 201.63 471.949 200.815L467.008 189.183H470.399L473.53 197.264L476.188 189.183H476.204Z" fill="white"/>
<path fill-rule="evenodd" clip-rule="evenodd" d="M340.555 366.035L392.229 287.546H472.585L524.242 366.035L472.585 444.523H392.229L340.555 366.035Z" fill="#06AB84"/>
<path fill-rule="evenodd" clip-rule="evenodd" d="M472.715 287.546H485.694L537.238 366.035L485.694 444.523H472.715L524.258 366.035L472.715 287.546Z" fill="#D8D9D8"/>
<path opacity="0.13" fill-rule="evenodd" clip-rule="evenodd" d="M340.555 366.035L392.098 287.546H472.699L524.242 366.035C471.101 352.155 421.416 345.215 340.555 366.035Z" fill="white"/>
<path d="M392.669 373.626C390.142 373.626 388.039 372.779 386.392 371.101C384.745 369.423 383.913 367.338 383.913 364.878C383.913 362.418 384.745 360.317 386.392 358.639C388.039 356.961 390.142 356.13 392.669 356.13C394.186 356.13 395.605 356.489 396.893 357.205C398.181 357.922 399.192 358.883 399.909 360.105L397.039 361.767C396.616 361.017 396.029 360.431 395.262 360.007C394.496 359.584 393.631 359.372 392.669 359.372C391.039 359.372 389.718 359.877 388.707 360.903C387.712 361.93 387.207 363.265 387.207 364.895C387.207 366.524 387.712 367.843 388.707 368.869C389.718 369.896 391.023 370.401 392.669 370.401C393.631 370.401 394.496 370.189 395.278 369.765C396.061 369.342 396.648 368.755 397.039 368.022L399.909 369.684C399.192 370.906 398.181 371.867 396.909 372.584C395.637 373.301 394.218 373.659 392.669 373.659V373.626Z" fill="white"/>
<path d="M409.955 361.278H413.053V373.3H409.955V371.948C409.205 373.072 407.998 373.626 406.368 373.626C405.047 373.626 403.971 373.186 403.107 372.307C402.242 371.427 401.818 370.205 401.818 368.658V361.278H404.916V368.267C404.916 369.065 405.128 369.684 405.569 370.108C406.009 370.531 406.58 370.743 407.297 370.743C408.096 370.743 408.748 370.498 409.221 369.993C409.694 369.488 409.939 368.755 409.939 367.762V361.278H409.955Z" fill="white"/>
<path d="M419.003 363.331C419.297 362.565 419.77 361.979 420.438 361.604C421.107 361.229 421.841 361.034 422.672 361.034V364.487C421.727 364.373 420.879 364.569 420.129 365.057C419.379 365.562 419.003 366.377 419.003 367.534V373.284H415.905V361.262H419.003V363.331Z" fill="white"/>
<path d="M425.998 359.828C425.476 359.828 425.036 359.633 424.661 359.258C424.286 358.883 424.09 358.443 424.09 357.922C424.09 357.401 424.286 356.961 424.661 356.57C425.036 356.179 425.476 356 425.998 356C426.519 356 426.976 356.195 427.351 356.57C427.726 356.961 427.922 357.401 427.922 357.922C427.922 358.443 427.726 358.883 427.351 359.258C426.976 359.633 426.519 359.828 425.998 359.828ZM424.465 373.284V361.262H427.563V373.284H424.465Z" fill="white"/>
<path d="M440.658 371.786C439.419 373.007 437.919 373.626 436.142 373.626C434.364 373.626 432.864 373.007 431.625 371.786C430.386 370.564 429.782 369.065 429.782 367.273C429.782 365.481 430.402 363.999 431.625 362.76C432.848 361.539 434.348 360.92 436.142 360.92C437.935 360.92 439.435 361.539 440.658 362.76C441.898 363.982 442.517 365.481 442.517 367.273C442.517 369.065 441.898 370.547 440.658 371.786ZM433.81 369.651C434.429 370.27 435.196 370.596 436.125 370.596C437.055 370.596 437.837 370.287 438.457 369.651C439.077 369.032 439.403 368.234 439.403 367.273C439.403 366.312 439.093 365.514 438.457 364.895C437.837 364.276 437.055 363.95 436.125 363.95C435.196 363.95 434.413 364.259 433.81 364.895C433.19 365.514 432.88 366.312 432.88 367.273C432.88 368.234 433.19 369.032 433.81 369.651Z" fill="white"/>
<path d="M447.556 364.683C447.556 365.009 447.768 365.269 448.192 365.465C448.616 365.66 449.138 365.839 449.741 366.002C450.344 366.149 450.964 366.344 451.567 366.572C452.171 366.801 452.692 367.192 453.116 367.729C453.54 368.267 453.752 368.951 453.752 369.765C453.752 371.004 453.296 371.948 452.366 372.616C451.437 373.284 450.295 373.61 448.909 373.61C446.447 373.61 444.751 372.649 443.854 370.743L446.545 369.228C446.904 370.27 447.686 370.792 448.909 370.792C450.018 370.792 450.573 370.45 450.573 369.765C450.573 369.44 450.361 369.179 449.937 368.983C449.513 368.788 448.991 368.609 448.388 368.446C447.784 368.283 447.165 368.088 446.561 367.843C445.958 367.599 445.436 367.224 445.012 366.703C444.588 366.182 444.376 365.53 444.376 364.748C444.376 363.559 444.817 362.63 445.681 361.946C446.561 361.262 447.637 360.92 448.942 360.92C449.92 360.92 450.817 361.148 451.616 361.588C452.415 362.027 453.051 362.663 453.524 363.477L450.882 364.911C450.491 364.096 449.855 363.689 448.958 363.689C448.551 363.689 448.224 363.77 447.964 363.95C447.703 364.129 447.572 364.373 447.572 364.666L447.556 364.683Z" fill="white"/>
<path d="M457.422 359.828C456.9 359.828 456.459 359.633 456.084 359.258C455.709 358.883 455.514 358.443 455.514 357.922C455.514 357.401 455.709 356.961 456.084 356.57C456.459 356.179 456.9 356 457.422 356C457.943 356 458.4 356.195 458.775 356.57C459.15 356.961 459.346 357.401 459.346 357.922C459.346 358.443 459.15 358.883 458.775 359.258C458.4 359.633 457.943 359.828 457.422 359.828ZM455.889 373.284V361.262H458.987V373.284H455.889Z" fill="white"/>
<path d="M468.703 364.243H465.98V369.244C465.98 369.668 466.078 369.961 466.29 370.156C466.502 370.352 466.796 370.45 467.203 370.482C467.611 370.515 468.1 370.499 468.703 370.482V373.301C466.567 373.545 465.067 373.333 464.187 372.698C463.306 372.062 462.882 370.906 462.882 369.26V364.259H460.795V361.278H462.882V358.851L465.98 357.906V361.278H468.703V364.259V364.243Z" fill="white"/>
<path d="M478.928 361.278H482.254L477.868 373.317C477.249 375.027 476.417 376.282 475.373 377.064C474.33 377.846 473.058 378.188 471.509 378.106V375.223C472.34 375.223 473.009 375.06 473.498 374.685C473.987 374.311 474.379 373.724 474.672 372.91L469.731 361.278H473.123L476.254 369.358L478.912 361.278H478.928Z" fill="white"/>
<path fill-rule="evenodd" clip-rule="evenodd" d="M189.333 451.626L241.007 373.121H321.363L373.021 451.626L321.363 530.114H241.007L189.333 451.626Z" fill="#06AB84"/>
<path fill-rule="evenodd" clip-rule="evenodd" d="M321.476 373.121H334.471L386.015 451.626L334.471 530.114H321.476L373.035 451.626L321.476 373.121Z" fill="#D8D9D8"/>
<path opacity="0.13" fill-rule="evenodd" clip-rule="evenodd" d="M189.333 451.626L240.876 373.137H321.477L373.021 451.626C319.879 437.746 270.195 430.806 189.333 451.626Z" fill="white"/>
<path d="M244.61 443.79H251.703V446.967H241.283V430.139H251.589V433.315H244.61V436.899H250.985V440.027H244.61V443.806V443.79Z" fill="white"/>
<path d="M264.993 446.967H261.406L258.797 443.318L256.188 446.967H252.601L257.003 440.825L252.78 434.944H256.367L258.797 438.333L261.226 434.944H264.781L260.574 440.825L264.977 446.967H264.993Z" fill="white"/>
<path d="M273.405 437.926H270.682V442.927C270.682 443.35 270.78 443.644 270.992 443.839C271.204 444.035 271.497 444.132 271.905 444.165C272.313 444.181 272.802 444.181 273.389 444.165V446.983C271.253 447.227 269.753 447.016 268.872 446.38C267.992 445.745 267.568 444.588 267.568 442.943V437.942H265.48V434.961H267.568V432.533L270.666 431.588V434.961H273.389V437.942L273.405 437.926Z" fill="white"/>
<path d="M278.413 442.226C278.837 443.725 279.962 444.491 281.805 444.491C282.995 444.491 283.892 444.083 284.495 443.285L286.99 444.735C285.8 446.446 284.055 447.309 281.74 447.309C279.75 447.309 278.152 446.706 276.946 445.501C275.739 444.295 275.136 442.78 275.136 440.956C275.136 439.131 275.723 437.632 276.913 436.427C278.103 435.221 279.62 434.619 281.479 434.619C283.24 434.619 284.691 435.221 285.849 436.443C286.99 437.665 287.577 439.164 287.577 440.956C287.577 441.363 287.545 441.786 287.463 442.226H278.397H278.413ZM278.364 439.815H284.495C284.316 439.001 283.957 438.382 283.403 437.991C282.849 437.6 282.213 437.388 281.511 437.388C280.68 437.388 279.979 437.6 279.441 438.023C278.902 438.447 278.527 439.05 278.364 439.815Z" fill="white"/>
<path d="M292.876 437.013C293.17 436.248 293.643 435.661 294.311 435.286C294.98 434.912 295.714 434.716 296.545 434.716V438.17C295.6 438.056 294.752 438.251 294.002 438.74C293.252 439.245 292.876 440.06 292.876 441.216V446.967H289.778V434.944H292.876V437.013Z" fill="white"/>
<path d="M305.024 434.602C306.344 434.602 307.421 435.042 308.285 435.922C309.149 436.801 309.573 438.023 309.573 439.571V446.95H306.475V439.962C306.475 439.164 306.263 438.545 305.823 438.121C305.382 437.697 304.812 437.486 304.094 437.486C303.295 437.486 302.643 437.73 302.17 438.235C301.697 438.74 301.453 439.473 301.453 440.467V446.95H298.354V434.928H301.453V436.28C302.203 435.156 303.409 434.602 305.04 434.602H305.024Z" fill="white"/>
<path d="M321.362 434.944H324.46V446.967H321.362V445.55C320.433 446.722 319.128 447.309 317.432 447.309C315.736 447.309 314.448 446.69 313.307 445.468C312.165 444.246 311.595 442.748 311.595 440.956C311.595 439.164 312.165 437.681 313.307 436.443C314.448 435.205 315.834 434.602 317.432 434.602C319.03 434.602 320.416 435.189 321.362 436.362V434.944ZM315.639 443.399C316.258 444.035 317.057 444.344 318.019 444.344C318.981 444.344 319.78 444.035 320.416 443.399C321.052 442.764 321.362 441.949 321.362 440.956C321.362 439.962 321.052 439.147 320.416 438.512C319.78 437.877 318.981 437.567 318.019 437.567C317.057 437.567 316.258 437.877 315.639 438.512C315.019 439.147 314.693 439.962 314.693 440.956C314.693 441.949 315.003 442.764 315.639 443.399Z" fill="white"/>
<path d="M327.281 446.967V429.422H330.379V446.967H327.281Z" fill="white"/>
<path d="M264.127 463.925H257.393V467.917H263.932V471.093H257.393V477.577H254.066V460.749H264.127V463.925Z" fill="white"/>
<path d="M276.665 476.078C275.426 477.3 273.926 477.919 272.148 477.919C270.371 477.919 268.871 477.3 267.632 476.078C266.409 474.856 265.789 473.358 265.789 471.566C265.789 469.774 266.409 468.291 267.632 467.053C268.855 465.831 270.355 465.212 272.148 465.212C273.942 465.212 275.442 465.831 276.665 467.053C277.904 468.275 278.524 469.774 278.524 471.566C278.524 473.358 277.904 474.84 276.665 476.078ZM269.817 473.944C270.436 474.563 271.203 474.889 272.132 474.889C273.062 474.889 273.844 474.579 274.464 473.944C275.084 473.309 275.41 472.527 275.41 471.566C275.41 470.605 275.1 469.806 274.464 469.187C273.844 468.568 273.062 468.242 272.132 468.242C271.203 468.242 270.42 468.552 269.817 469.187C269.197 469.806 268.887 470.605 268.887 471.566C268.887 472.527 269.197 473.325 269.817 473.944Z" fill="white"/>
<path d="M286.435 477.903C284.625 477.903 283.108 477.3 281.902 476.078C280.695 474.856 280.092 473.358 280.092 471.566C280.092 469.774 280.695 468.259 281.902 467.053C283.108 465.831 284.625 465.229 286.435 465.229C287.609 465.229 288.669 465.506 289.631 466.076C290.593 466.63 291.327 467.395 291.816 468.34L289.142 469.904C288.897 469.399 288.538 469.008 288.049 468.731C287.56 468.438 287.006 468.291 286.402 468.291C285.473 468.291 284.706 468.601 284.087 469.22C283.467 469.839 283.174 470.621 283.174 471.582C283.174 472.543 283.483 473.309 284.087 473.928C284.69 474.547 285.473 474.856 286.402 474.856C287.022 474.856 287.593 474.71 288.082 474.433C288.571 474.156 288.93 473.765 289.174 473.26L291.865 474.791C291.327 475.736 290.593 476.502 289.631 477.056C288.669 477.626 287.593 477.903 286.435 477.903Z" fill="white"/>
<path d="M301.55 465.554H304.648V477.577H301.55V476.225C300.8 477.349 299.593 477.903 297.962 477.903C296.642 477.903 295.565 477.463 294.701 476.583C293.837 475.703 293.413 474.482 293.413 472.934V465.554H296.511V472.543C296.511 473.341 296.723 473.96 297.164 474.384C297.604 474.808 298.174 475.019 298.892 475.019C299.691 475.019 300.343 474.775 300.816 474.27C301.289 473.765 301.534 473.032 301.534 472.038V465.554H301.55Z" fill="white"/>
<path d="M310.355 468.959C310.355 469.285 310.567 469.546 310.991 469.741C311.415 469.937 311.937 470.116 312.54 470.279C313.143 470.425 313.763 470.621 314.366 470.849C314.969 471.077 315.491 471.468 315.915 472.005C316.339 472.543 316.551 473.227 316.551 474.042C316.551 475.28 316.095 476.225 315.165 476.893C314.236 477.561 313.094 477.886 311.708 477.886C309.246 477.886 307.55 476.925 306.653 475.019L309.344 473.504C309.703 474.547 310.485 475.068 311.708 475.068C312.817 475.068 313.371 474.726 313.371 474.042C313.371 473.716 313.159 473.455 312.735 473.26C312.312 473.064 311.79 472.885 311.186 472.722C310.583 472.559 309.963 472.364 309.36 472.12C308.757 471.875 308.235 471.5 307.811 470.979C307.387 470.458 307.175 469.806 307.175 469.024C307.175 467.835 307.615 466.907 308.48 466.222C309.36 465.538 310.436 465.196 311.741 465.196C312.719 465.196 313.616 465.424 314.415 465.864C315.214 466.304 315.85 466.939 316.323 467.754L313.681 469.187C313.29 468.373 312.654 467.965 311.757 467.965C311.349 467.965 311.023 468.047 310.762 468.226C310.502 468.405 310.371 468.65 310.371 468.943L310.355 468.959Z" fill="white"/>
<path fill-rule="evenodd" clip-rule="evenodd" d="M37.9629 365.97L89.6204 287.481H170.238L221.895 365.97L170.238 444.442H89.6204L37.9629 365.97Z" fill="#06AB84"/>
<path fill-rule="evenodd" clip-rule="evenodd" d="M170.286 287.481H183.298L234.907 365.97L183.298 444.442H170.286L221.895 365.97L170.286 287.481Z" fill="#D8D9D8"/>
<path opacity="0.13" fill-rule="evenodd" clip-rule="evenodd" d="M37.9626 365.97L89.5712 287.481H170.27L221.878 365.97C168.656 352.09 118.922 345.166 37.9463 365.97H37.9626Z" fill="white"/>
<path fill-rule="evenodd" clip-rule="evenodd" d="M24.8682 189.982L76.4442 111.607H157.208L208.784 189.982L157.208 268.356H76.4442L24.8682 189.982Z" fill="#06AB84"/>
<path opacity="0.13" fill-rule="evenodd" clip-rule="evenodd" d="M27.1677 189.982L78.7763 111.607H159.475L211.084 189.982C157.861 176.135 108.127 169.195 27.1514 189.982H27.1677Z" fill="white"/>
<path d="M73.4463 176.998H76.7727V193.826H73.4463V176.998Z" fill="white"/>
<path d="M86.4426 181.462C87.7634 181.462 88.8396 181.901 89.7038 182.781C90.568 183.661 90.992 184.883 90.992 186.43V193.81H87.8938V186.821C87.8938 186.023 87.6819 185.404 87.2416 184.98C86.8013 184.557 86.2306 184.345 85.5131 184.345C84.7141 184.345 84.0619 184.589 83.589 185.094C83.1162 185.583 82.8716 186.332 82.8716 187.326V193.81H79.7734V181.787H82.8716V183.14C83.6217 182.015 84.8283 181.462 86.4589 181.462H86.4426Z" fill="white"/>
<path d="M100.514 184.785H97.7905V189.786C97.7905 190.21 97.8883 190.503 98.1003 190.698C98.3123 190.894 98.6058 190.992 99.0135 191.024C99.4211 191.041 99.9103 191.041 100.497 191.024V193.843C98.3612 194.087 96.8611 193.875 95.9806 193.24C95.1 192.604 94.676 191.448 94.676 189.802V184.801H92.5889V181.82H94.676V179.393L97.7742 178.448V181.82H100.497V184.801L100.514 184.785Z" fill="white"/>
<path d="M105.521 189.086C105.945 190.584 107.07 191.35 108.912 191.35C110.103 191.35 110.999 190.943 111.603 190.144L114.098 191.594C112.907 193.305 111.163 194.168 108.847 194.168C106.858 194.168 105.26 193.566 104.053 192.36C102.846 191.154 102.243 189.639 102.243 187.815C102.243 185.99 102.83 184.492 104.021 183.286C105.211 182.081 106.727 181.478 108.586 181.478C110.347 181.478 111.799 182.081 112.956 183.302C114.098 184.524 114.685 186.023 114.685 187.815C114.685 188.222 114.652 188.646 114.571 189.086H105.504H105.521ZM105.472 186.675H111.603C111.423 185.86 111.065 185.241 110.51 184.85C109.956 184.443 109.32 184.247 108.619 184.247C107.787 184.247 107.086 184.459 106.548 184.883C106.01 185.306 105.635 185.909 105.472 186.675Z" fill="white"/>
<path d="M126.083 181.804H129.115V193.24C129.115 195.097 128.496 196.514 127.273 197.492C126.05 198.469 124.566 198.958 122.838 198.958C121.533 198.958 120.392 198.713 119.413 198.208C118.435 197.703 117.669 196.987 117.147 196.025L119.788 194.51C120.392 195.634 121.452 196.188 122.935 196.188C123.914 196.188 124.68 195.928 125.251 195.423C125.805 194.918 126.099 194.185 126.099 193.24V191.936C125.186 193.158 123.898 193.761 122.251 193.761C120.604 193.761 119.12 193.158 117.978 191.969C116.837 190.78 116.25 189.314 116.25 187.603C116.25 185.893 116.821 184.459 117.978 183.254C119.136 182.048 120.555 181.445 122.234 181.445C123.914 181.445 125.169 182.048 126.083 183.27V181.771V181.804ZM120.294 189.982C120.93 190.601 121.729 190.91 122.707 190.91C123.686 190.91 124.485 190.601 125.12 189.982C125.756 189.363 126.066 188.581 126.066 187.619C126.066 186.658 125.756 185.893 125.12 185.274C124.485 184.655 123.686 184.345 122.707 184.345C121.729 184.345 120.93 184.655 120.294 185.274C119.658 185.893 119.348 186.675 119.348 187.619C119.348 188.564 119.658 189.363 120.294 189.982Z" fill="white"/>
<path d="M135.034 183.873C135.328 183.107 135.801 182.52 136.469 182.146C137.138 181.755 137.872 181.576 138.687 181.576V185.029C137.741 184.915 136.893 185.111 136.143 185.599C135.393 186.104 135.018 186.919 135.018 188.076V193.826H131.92V181.804H135.018V183.873H135.034Z" fill="white"/>
<path d="M142.045 180.354C141.539 180.354 141.082 180.158 140.707 179.784C140.332 179.409 140.137 178.969 140.137 178.448C140.137 177.927 140.332 177.487 140.707 177.096C141.082 176.705 141.523 176.526 142.045 176.526C142.566 176.526 143.023 176.721 143.398 177.096C143.773 177.487 143.969 177.927 143.969 178.448C143.969 178.969 143.773 179.409 143.398 179.784C143.023 180.158 142.566 180.354 142.045 180.354ZM140.512 193.81V181.787H143.61V193.81H140.512Z" fill="white"/>
<path d="M153.33 184.785H150.607V189.786C150.607 190.21 150.705 190.503 150.917 190.698C151.129 190.894 151.422 190.992 151.83 191.024C152.238 191.041 152.727 191.041 153.314 191.024V193.842C151.178 194.087 149.677 193.875 148.797 193.24C147.916 192.604 147.492 191.448 147.492 189.802V184.801H145.405V181.82H147.492V179.393L150.591 178.448V181.82H153.314V184.801L153.33 184.785Z" fill="white"/>
<path d="M163.554 181.804H166.881L162.494 193.843C161.875 195.553 161.043 196.807 160 197.589C158.956 198.371 157.684 198.713 156.135 198.632V195.749C156.967 195.749 157.635 195.586 158.124 195.227C158.614 194.853 159.005 194.266 159.298 193.452L154.374 181.82H157.766L160.896 189.9L163.554 181.82V181.804Z" fill="white"/>
<path d="M60.4341 369.326C57.9067 369.326 55.8032 368.478 54.1563 366.8C52.5093 365.123 51.6777 363.037 51.6777 360.577C51.6777 358.118 52.5093 356.016 54.1563 354.338C55.8032 352.66 57.9067 351.829 60.4341 351.829C61.9506 351.829 63.3692 352.188 64.6574 352.905C65.9455 353.621 66.9565 354.582 67.674 355.804L64.8041 357.466C64.3801 356.717 63.7931 356.13 63.0268 355.707C62.2604 355.283 61.3962 355.071 60.4341 355.071C58.8035 355.071 57.4827 355.576 56.4717 356.602C55.4607 357.629 54.9716 358.965 54.9716 360.594C54.9716 362.223 55.477 363.542 56.4717 364.569C57.4664 365.595 58.7872 366.1 60.4341 366.1C61.3962 366.1 62.2604 365.888 63.043 365.465C63.8257 365.041 64.4128 364.455 64.8041 363.722L67.674 365.383C66.9565 366.605 65.9455 367.566 64.6737 368.283C63.3855 369 61.9832 369.358 60.4341 369.358V369.326Z" fill="white"/>
<path d="M80.0344 367.501C78.7951 368.723 77.2949 369.342 75.5176 369.342C73.7402 369.342 72.2401 368.723 71.0008 367.501C69.7778 366.279 69.1582 364.78 69.1582 362.988C69.1582 361.196 69.7778 359.714 71.0008 358.476C72.2237 357.254 73.7239 356.635 75.5176 356.635C77.3112 356.635 78.8114 357.254 80.0344 358.476C81.2736 359.698 81.8932 361.196 81.8932 362.988C81.8932 364.78 81.2736 366.263 80.0344 367.501ZM73.1858 365.367C73.8054 365.986 74.5718 366.312 75.5013 366.312C76.4307 366.312 77.2134 366.002 77.833 365.367C78.4527 364.732 78.7788 363.95 78.7788 362.988C78.7788 362.027 78.469 361.229 77.833 360.61C77.2134 359.991 76.4307 359.665 75.5013 359.665C74.5718 359.665 73.7891 359.975 73.1858 360.61C72.5662 361.229 72.2564 362.027 72.2564 362.988C72.2564 363.95 72.5662 364.748 73.1858 365.367Z" fill="white"/>
<path d="M84.0605 369V351.455H87.1587V369H84.0605Z" fill="white"/>
<path d="M90.0127 369V351.455H93.1108V369H90.0127Z" fill="white"/>
<path d="M105.096 356.977H108.194V369H105.096V367.582C104.167 368.755 102.862 369.342 101.166 369.342C99.4705 369.342 98.1824 368.723 97.0409 367.501C95.8995 366.279 95.3125 364.78 95.3125 362.988C95.3125 361.196 95.8832 359.714 97.0409 358.476C98.1824 357.254 99.5684 356.635 101.166 356.635C102.846 356.635 104.15 357.222 105.096 358.394V356.977ZM99.3727 365.432C99.9923 366.067 100.791 366.377 101.753 366.377C102.715 366.377 103.514 366.067 104.15 365.432C104.786 364.797 105.096 363.982 105.096 362.988C105.096 361.995 104.786 361.18 104.15 360.545C103.514 359.91 102.715 359.6 101.753 359.6C100.791 359.6 99.9923 359.91 99.3727 360.545C98.7531 361.18 98.427 361.995 98.427 362.988C98.427 363.982 98.7368 364.797 99.3727 365.432Z" fill="white"/>
<path d="M118.01 356.635C119.624 356.635 121.01 357.254 122.168 358.476C123.309 359.698 123.88 361.197 123.88 362.988C123.88 364.78 123.309 366.263 122.168 367.501C121.027 368.723 119.641 369.342 118.01 369.342C116.379 369.342 115.026 368.755 114.113 367.582V369H111.015V352.171H114.113V358.395C115.026 357.222 116.33 356.635 118.01 356.635ZM115.059 365.416C115.678 366.051 116.477 366.361 117.439 366.361C118.401 366.361 119.2 366.051 119.836 365.416C120.472 364.78 120.782 363.966 120.782 362.972C120.782 361.978 120.472 361.164 119.836 360.529C119.2 359.893 118.401 359.584 117.439 359.584C116.477 359.584 115.678 359.893 115.059 360.529C114.439 361.164 114.113 361.978 114.113 362.972C114.113 363.966 114.423 364.78 115.059 365.416Z" fill="white"/>
<path d="M136.323 367.501C135.084 368.723 133.584 369.342 131.807 369.342C130.029 369.342 128.529 368.723 127.29 367.501C126.067 366.279 125.447 364.78 125.447 362.988C125.447 361.196 126.067 359.714 127.29 358.476C128.513 357.254 130.013 356.635 131.807 356.635C133.6 356.635 135.1 357.254 136.323 358.476C137.563 359.698 138.182 361.196 138.182 362.988C138.182 364.78 137.563 366.263 136.323 367.501ZM129.475 365.367C130.094 365.986 130.861 366.312 131.79 366.312C132.72 366.312 133.502 366.002 134.122 365.367C134.742 364.731 135.068 363.95 135.068 362.988C135.068 362.027 134.758 361.229 134.122 360.61C133.502 359.991 132.72 359.665 131.79 359.665C130.861 359.665 130.078 359.975 129.475 360.61C128.855 361.229 128.545 362.027 128.545 362.988C128.545 363.95 128.855 364.748 129.475 365.367Z" fill="white"/>
<path d="M143.48 359.046C143.773 358.28 144.246 357.694 144.915 357.319C145.583 356.928 146.317 356.749 147.132 356.749V360.203C146.186 360.089 145.339 360.284 144.588 360.773C143.838 361.278 143.463 362.092 143.463 363.249V369H140.365V356.977H143.463V359.046H143.48Z" fill="white"/>
<path d="M158.074 356.977H161.172V369H158.074V367.582C157.144 368.755 155.84 369.342 154.144 369.342C152.448 369.342 151.16 368.723 150.018 367.501C148.877 366.279 148.29 364.78 148.29 362.988C148.29 361.196 148.861 359.714 150.018 358.476C151.16 357.254 152.546 356.635 154.144 356.635C155.823 356.635 157.128 357.221 158.074 358.394V356.977ZM152.35 365.432C152.97 366.067 153.769 366.377 154.731 366.377C155.693 366.377 156.492 366.067 157.128 365.432C157.764 364.797 158.074 363.982 158.074 362.988C158.074 361.995 157.764 361.18 157.128 360.545C156.492 359.909 155.693 359.6 154.731 359.6C153.769 359.6 152.97 359.909 152.35 360.545C151.731 361.18 151.404 361.995 151.404 362.988C151.404 363.982 151.714 364.797 152.35 365.432Z" fill="white"/>
<path d="M170.875 359.958H168.152V364.96C168.152 365.383 168.25 365.676 168.462 365.872C168.674 366.067 168.967 366.165 169.375 366.198C169.782 366.214 170.272 366.214 170.859 366.198V369.016C168.722 369.26 167.222 369.049 166.342 368.413C165.461 367.778 165.037 366.621 165.037 364.976V359.975H162.95V356.993H165.037V354.566L168.136 353.621V356.993H170.859V359.975L170.875 359.958Z" fill="white"/>
<path d="M174.803 355.527C174.298 355.527 173.841 355.332 173.466 354.957C173.091 354.582 172.896 354.143 172.896 353.621C172.896 353.1 173.091 352.66 173.466 352.269C173.841 351.878 174.282 351.699 174.803 351.699C175.325 351.699 175.782 351.894 176.157 352.269C176.532 352.66 176.727 353.1 176.727 353.621C176.727 354.143 176.532 354.582 176.157 354.957C175.782 355.332 175.325 355.527 174.803 355.527ZM173.271 368.983V356.961H176.369V368.983H173.271Z" fill="white"/>
<path d="M189.463 367.501C188.224 368.723 186.724 369.342 184.946 369.342C183.169 369.342 181.669 368.723 180.43 367.501C179.207 366.279 178.587 364.78 178.587 362.988C178.587 361.196 179.207 359.714 180.43 358.476C181.652 357.254 183.153 356.635 184.946 356.635C186.74 356.635 188.24 357.254 189.463 358.476C190.702 359.698 191.322 361.196 191.322 362.988C191.322 364.78 190.702 366.263 189.463 367.501ZM182.615 365.367C183.234 365.986 184 366.312 184.93 366.312C185.859 366.312 186.642 366.002 187.262 365.367C187.881 364.731 188.207 363.95 188.207 362.988C188.207 362.027 187.898 361.229 187.262 360.61C186.642 359.991 185.859 359.665 184.93 359.665C184 359.665 183.218 359.975 182.615 360.61C181.995 361.229 181.685 362.027 181.685 362.988C181.685 363.95 181.995 364.748 182.615 365.367Z" fill="white"/>
<path d="M200.195 356.635C201.515 356.635 202.592 357.075 203.456 357.955C204.32 358.834 204.744 360.056 204.744 361.604V368.983H201.646V361.995C201.646 361.196 201.434 360.577 200.994 360.154C200.553 359.73 199.983 359.518 199.265 359.518C198.466 359.518 197.814 359.763 197.341 360.268C196.868 360.757 196.624 361.506 196.624 362.5V368.983H193.525V356.961H196.624V358.313C197.374 357.189 198.58 356.635 200.211 356.635H200.195Z" fill="white"/>
</svg>
